<svg xmlns="http://www.w3.org/2000/svg" viewBox="0 11.470000267028809 43.650001525878906 38.09000015258789" data-asc="0.9794921875" width="43.650001525878906" height="38.09000015258789"><defs/><g fill="#ffffff"><g transform="translate(0, 0)"><path d="M21.53 20.12Q21.53 23.49 19.87 26.25Q18.21 29.00 15.43 30.86Q16.89 31.15 17.97 31.86Q19.04 32.57 19.75 33.59Q20.46 34.62 20.83 35.91Q21.19 37.21 21.19 38.62Q21.19 41.41 19.90 43.48Q18.60 45.56 16.55 46.90Q14.50 48.24 11.99 48.90Q9.47 49.56 6.98 49.56Q5.62 49.56 4.25 49.37Q2.88 49.17 1.66 48.68Q1.22 48.54 0.93 47.49Q0.63 46.44 0.46 44.92Q0.29 43.41 0.20 41.65Q0.10 39.89 0.05 38.28Q0 36.67 0 35.45Q0 34.23 0 33.74Q0 32.03 0 30.30Q0 28.56 0.10 26.86Q0.10 26.42 0.12 25.49Q0.15 24.56 0.17 23.41Q0.20 22.27 0.27 21.00Q0.34 19.73 0.46 18.63Q0.59 17.53 0.81 16.75Q1.03 15.97 1.32 15.77Q2.44 15.04 3.81 14.38Q5.18 13.72 6.64 13.23Q8.11 12.74 9.57 12.45Q11.04 12.16 12.35 12.16Q14.16 12.16 15.84 12.67Q17.53 13.18 18.77 14.21Q20.02 15.23 20.78 16.72Q21.53 18.21 21.53 20.12M13.43 22.71Q13.43 21.88 12.92 21.48Q12.40 21.09 11.57 21.09Q10.89 21.09 10.13 21.39Q9.38 21.68 8.84 22.17Q8.69 22.31 8.57 23.00Q8.45 23.68 8.37 24.54Q8.30 25.39 8.28 26.15Q8.25 26.90 8.25 27.15Q8.25 27.25 8.25 27.47Q8.25 27.69 8.28 27.93Q8.30 28.17 8.35 28.37Q8.40 28.56 8.50 28.56Q9.33 28.56 10.21 27.95Q11.08 27.34 11.79 26.44Q12.50 25.54 12.96 24.51Q13.43 23.49 13.43 22.71M13.23 36.82Q13.23 35.99 12.65 35.64Q12.06 35.30 11.33 35.30Q10.64 35.30 9.89 35.62Q9.13 35.94 8.64 36.38Q8.50 36.47 8.42 36.87Q8.35 37.26 8.33 37.72Q8.30 38.18 8.28 38.60Q8.25 39.01 8.25 39.16Q8.25 39.26 8.25 39.55Q8.25 39.84 8.28 40.16Q8.30 40.48 8.37 40.75Q8.45 41.02 8.54 41.02Q9.23 41.02 10.06 40.63Q10.89 40.23 11.60 39.65Q12.30 39.06 12.77 38.31Q13.23 37.55 13.23 36.82ZM43.65 13.72Q43.65 15.58 42.38 17.09Q41.11 18.60 39.28 19.80Q37.45 21.00 35.45 21.88Q33.45 22.75 31.98 23.34Q31.98 24.37 31.93 25.44Q31.88 26.51 31.79 27.59Q33.35 26.81 35.30 26.12Q37.26 25.44 39.01 25.44Q40.43 25.44 41.33 26.03Q42.24 26.61 42.24 28.08Q42.24 29.69 41.09 30.96Q39.94 32.23 38.33 33.20Q36.72 34.18 34.96 34.86Q33.20 35.55 31.98 35.94Q31.98 37.55 31.93 39.14Q31.88 40.72 31.79 42.29Q31.74 43.07 31.62 44.24Q31.49 45.41 31.13 46.51Q30.76 47.61 30.08 48.41Q29.39 49.22 28.32 49.22Q27.29 49.22 26.56 48.22Q25.83 47.22 25.32 45.65Q24.80 44.09 24.49 42.16Q24.17 40.23 24.00 38.38Q23.83 36.52 23.80 34.96Q23.78 33.40 23.78 32.57Q23.78 31.93 23.80 30.69Q23.83 29.44 23.85 27.93Q23.88 26.42 23.95 24.76Q24.02 23.10 24.12 21.61Q24.22 20.12 24.39 18.97Q24.56 17.82 24.80 17.29Q25.34 16.21 27.37 15.16Q29.39 14.11 31.88 13.31Q34.38 12.50 36.74 11.99Q39.11 11.47 40.38 11.47Q40.97 11.47 41.53 11.55Q42.09 11.62 42.58 11.87Q43.07 12.11 43.36 12.55Q43.65 12.99 43.65 13.72Z"/></g></g></svg>